<?xml version="1.0" encoding="UTF-8" standalone="no"?><!DOCTYPE svg PUBLIC "-//W3C//DTD SVG 1.1//EN" "http://www.w3.org/Graphics/SVG/1.1/DTD/svg11.dtd"><svg width="100%" height="100%" viewBox="0 0 57 57" version="1.1" xmlns="http://www.w3.org/2000/svg" xmlns:xlink="http://www.w3.org/1999/xlink" xml:space="preserve" xmlns:serif="http://www.serif.com/" style="fill-rule:evenodd;clip-rule:evenodd;stroke-linejoin:round;stroke-miterlimit:2;"><g id="Background"><path d="M6.481,49.968c1.201,-0.044 3.547,-0.009 3.6,-0.005c2.159,0.169 2.353,1.463 2.482,2.104c0.124,0.618 0.055,2.055 0.044,2.177c-0.23,2.467 -1.936,2.441 -3.533,2.443c-2.465,0.003 -3.163,0.023 -3.883,-0.317c-1.357,-0.64 -1.256,-2.27 -1.255,-3.142c0.008,-5.265 0.004,-5.262 0.012,-5.347c0.042,-0.459 0.222,-0.414 1.227,-0.408c0.043,0 0.425,0.003 0.506,0.163c0.05,0.097 0.05,0.494 0.051,0.538c0.004,1.749 -0.037,1.77 0.046,1.856c0.095,0.099 0.117,0.036 0.703,-0.061Zm-0.76,3.692c0.021,0.807 0.112,1.07 0.589,1.341c0.268,0.152 0.306,0.169 2.764,0.161c0.853,-0.003 1.696,0.067 1.763,-1.211c0.084,-1.623 -0.104,-1.876 -0.2,-2.006c-0.419,-0.564 -0.821,-0.483 -3.007,-0.489c-1.61,-0.004 -1.881,-0.059 -1.904,0.615c-0.004,0.127 0.003,0.126 -0.005,1.589Z" style="fill:#0446b8;"/><path d="M16.296,49.959c0.265,-0.005 1.906,-0.035 3.317,-0.003c0.141,0.003 1.12,0.025 1.716,0.412c0.426,0.276 0.974,0.797 1.007,2.137c0.048,1.925 -0.057,2.269 -0.114,2.457c-0.335,1.102 -0.782,1.352 -1.733,1.617c-0.683,0.19 -4.239,0.086 -4.338,0.08c-0.129,-0.008 -1.01,-0.065 -1.555,-0.451c-0.281,-0.199 -0.877,-0.665 -0.922,-2.259c-0.071,-2.523 0.363,-2.889 0.454,-3.032c0.358,-0.563 1.223,-0.908 2.168,-0.957Zm4.252,2.685c-0.026,-0.356 -0.011,-0.867 -0.662,-1.099c-0.227,-0.081 -0.332,-0.118 -3.015,-0.086c-1.385,0.017 -1.442,0.643 -1.443,1.766c-0.001,1.018 -0.065,1.906 1.297,1.931c2.997,0.056 3.117,-0.018 3.344,-0.159c0.187,-0.116 0.611,-0.108 0.479,-2.354Z" style="fill:#034cb9;"/><path d="M32.527,55.383c-0.008,-0.127 -0.072,-1.204 0.037,-1.593c0.24,-0.857 0.952,-1.004 1.497,-1.081c0.434,-0.061 3.978,-0.021 4.324,-0.017c0.518,0.006 0.733,0.042 0.665,-0.47c-0.073,-0.542 -0.311,-0.716 -0.544,-0.807c-0.254,-0.099 -0.263,-0.086 -4.307,-0.084c-1.188,0.001 -1.413,0.087 -1.431,-0.416c-0.025,-0.711 -0.003,-0.955 0.565,-0.94c1.348,0.035 4.758,-0.03 5.201,0.05c0.925,0.167 1.212,0.37 1.497,0.698c0.529,0.608 0.512,0.911 0.502,4.236c-0.003,1.069 0.088,1.53 -0.57,1.674c-0.316,0.069 -5.736,0.064 -6.047,0.016c-1.255,-0.191 -1.338,-1.085 -1.388,-1.266Zm2.392,0.073c3.331,0.008 3.333,0.039 3.618,-0.006c0.597,-0.094 0.534,-0.583 0.529,-1.212c-0.003,-0.436 -0.098,-0.474 -0.537,-0.475c-3.722,-0.013 -3.727,-0.024 -4.041,0.053c-0.432,0.106 -0.565,0.324 -0.526,0.996c0.041,0.697 0.655,0.64 0.956,0.645Z" style="fill:#0c79cb;"/><path d="M40.374,16.401c-0.054,0.3 -0.163,0.678 0.153,1.318c0.013,0.026 0.026,0.088 0.309,0.424c0.171,0.203 0.552,0.364 0.605,0.387c-0.01,0.064 0.018,0.13 0.008,0.195c-0.019,0.121 -0.972,1.324 -0.981,1.337c-0.399,0.559 -4.27,5.475 -5.038,6.549c-0.024,0.034 -0.634,0.818 -0.689,0.889c-3.853,4.957 -3.822,4.98 -4.427,5.668c-0.043,-0.063 -0.117,-0.099 -0.16,-0.162c-0.04,-0.059 -0.052,-0.133 -0.084,-0.196c-0.057,-0.116 -0.135,-0.126 -0.143,-0.135c-0.026,-0.027 -0.035,-0.067 -0.054,-0.1c-0.132,-0.232 -0.263,-0.252 -0.29,-0.278c0.027,-0.033 0.253,-0.31 0.342,-0.4c0.02,-0.021 0.061,-0.021 0.073,-0.047c0.019,-0.042 -0.019,-0.102 0.01,-0.138c0.026,-0.031 0.089,0.009 0.119,-0.017c0.052,-0.044 0.087,-0.11 0.106,-0.175c0.023,-0.078 -0.02,-0.078 -0.006,-0.159c0.01,-0.057 0.041,-0.041 0.051,-0.099c0.01,-0.012 0.129,-0.151 0.129,-0.151c0.036,-0.052 0.019,-0.059 0.056,-0.108c0.025,-0.034 0.037,-0.017 0.06,-0.048c0.064,-0.052 0.087,0.045 0.15,-0.006c0.057,-0.047 -0.039,-0.08 0.014,-0.129c0.028,-0.026 0.103,0.075 0.191,-0.116c0.017,-0.037 0.023,-0.078 0.046,-0.112c0.017,-0.024 0.051,-0.033 0.07,-0.055c0.115,-0.139 0.071,-0.169 0.407,-0.597c0.704,-0.898 0.69,-0.905 1.394,-1.805c2.212,-2.825 2.195,-2.838 2.389,-3.082c0.736,-0.928 0.714,-0.943 1.449,-1.874c1.206,-1.527 2.388,-3.093 2.652,-3.425c0.645,-0.81 0.771,-0.875 0.797,-0.91c0.028,-0.037 0.037,-0.087 0.067,-0.122c0.014,-0.016 0.057,-0.003 0.06,-0.024c0.005,-0.043 -0.047,-0.081 -0.041,-0.124c-0.035,-0.004 -0.018,-0.086 -0.053,-0.09c-0.07,-0.008 -0.534,0.338 -0.578,0.371c-0.454,0.339 -1.526,0.95 -1.703,1.059c-2.39,1.469 -2.409,1.435 -2.614,1.568c-0.209,0.136 -0.297,0.257 -0.314,0.271c-0.129,-0.367 -0.133,-0.363 -0.336,-0.692c0.023,-0.06 0.029,-0.125 0.053,-0.185c0.028,-0.07 0.032,-0.074 1.42,-0.915c3.119,-1.892 3.109,-1.906 3.392,-2.05c0.325,-0.165 0.37,-0.183 0.404,-0.196c0.037,-0.015 0.083,-0.015 0.112,-0.043c0.027,-0.026 0.01,-0.082 0.039,-0.105c0.031,-0.024 0.12,0.024 0.117,-0.015c-0.014,-0.188 -0.38,-0.165 -0.416,-0.163c-0.6,0.038 -0.697,0.044 -7.513,0.037c-0.023,-0 -0.274,-0.006 -0.289,-0.007c-0.292,-0.003 -0.266,0.007 -0.341,-0.027c0.031,-0.36 0.098,-0.733 0.08,-1.094c0.027,-0.04 0.359,-0.02 0.407,-0.021c0.038,-0 7.274,0.001 7.363,0.002c0.502,0.002 0.518,-0.076 0.978,0.122Z" style="fill:#f4b81b;"/><path d="M38.315,3.497c0.042,0.01 0.069,0.016 0.074,0.017c-0.021,0.014 -0.048,-0.003 -0.074,-0.017Zm-0.053,-0.014c0.016,-0.005 0.034,0.004 0.053,0.014c-0.016,-0.004 -0.033,-0.008 -0.053,-0.014Zm-5.103,-1.096c0.128,-0.57 0.106,-0.64 0.025,-1.141c0.265,-0.026 0.663,-0.065 3.328,-0.041c0.284,0.003 0.279,-0.042 0.304,-0.039c0.056,0.007 0.091,0.076 0.147,0.083c-0.026,0.121 -0.21,0.604 0.105,1.308c0.279,0.623 0.921,0.852 1.195,0.927c-0.003,0.001 -0.005,0.002 -0.008,0.004c-0.056,0.037 -0.298,0.53 -0.611,1.068c-0.931,1.601 -1.345,2.34 -1.583,2.747c-0.163,0.28 -0.156,0.282 -0.316,0.562c-2.071,3.618 -2.046,3.631 -2.23,3.943c-0.235,0.398 -1.128,1.978 -1.154,2.022c-0.388,0.659 -0.483,0.912 -1.047,1.854c-0.498,-0.478 -0.807,-0.527 -1.013,-0.577c0.038,-0.054 0.093,-0.094 0.131,-0.148c0.024,-0.034 0.012,-0.04 0.255,-0.455c0.105,-0.18 0.104,-0.181 1.419,-2.531c0.144,-0.258 0.161,-0.245 0.305,-0.505c0.763,-1.379 1.813,-3.208 1.876,-3.322c0.088,-0.16 2.007,-3.536 2.047,-3.596c0.037,-0.056 0.384,-0.58 0.468,-0.703c0.034,-0.05 0.105,-0.09 0.103,-0.151c-0.002,-0.053 -0.065,-0.09 -0.113,-0.113c-0.039,-0.019 -0.09,-0.02 -0.13,-0.003c-0.02,0.009 -0.729,0.65 -0.916,0.784c-0.934,0.669 -3.223,2.432 -3.719,2.793c-0.504,0.367 -0.493,0.377 -0.994,0.745c-0.017,0.013 -1.026,0.784 -1.053,0.804c-0.033,0.024 -0.072,0.04 -0.102,0.068c-0.029,0.027 -0.038,0.073 -0.07,0.096c-0.033,0.024 -0.083,0.016 -0.116,0.04c-0.035,-0.067 -0.009,-0.082 -0.203,-0.34c-0.243,-0.323 -0.217,-0.366 -0.23,-0.389c0.189,-0.137 0.177,-0.147 2.313,-1.775c0.368,-0.28 3.063,-2.333 4.615,-3.473c0.448,-0.329 0.49,-0.29 0.504,-0.358c0.005,-0.026 -0.029,-0.306 -0.036,-0.31c-0.063,-0.03 -0.062,0.067 -0.868,0.073c-1.98,0.016 -1.984,-0.052 -2.627,0.05Z" style="fill:#fabe18;"/><path d="M29.282,15.229c0.2,-0.063 0.193,-0.093 0.73,-0.142l0.288,0.019c0.206,0.051 0.516,0.099 1.013,0.577c0.289,0.387 0.262,0.403 0.388,0.87c0.018,0.362 0.017,0.36 -0.014,0.72c-0.013,0.037 -0.029,0.384 -0.525,0.863c-0.36,0.32 -0.453,0.328 -0.72,0.431c-0.342,0.058 -0.951,0.236 -1.713,-0.45c-0.293,-0.264 -0.353,-0.162 -1.302,0.209c-0.447,0.175 -0.435,0.197 -0.893,0.362c-0.027,0.01 -1.241,0.49 -1.329,0.537c-0.271,0.147 -0.192,0.259 -0.232,0.359c-0.004,0.032 0.057,0.045 -0.201,0.825c-0.241,0.364 -0.175,0.422 0.173,0.914c1.385,1.958 1.517,2.273 1.739,2.321c0.433,0.093 0.768,-0.331 1.779,0.51c0.296,0.37 0.305,0.371 0.485,0.916c0.048,0.793 -0.011,1.182 -0.675,1.728c-0.492,0.284 -0.832,0.328 -0.985,0.363c-0.038,0.041 -0.096,0.06 -0.134,0.1c-0.061,0.065 -0.762,2.24 -1.607,4.598c-0.109,0.304 -0.072,0.316 -0.297,0.864c-0.093,0.226 -0.046,0.242 -0.995,2.893c-0.243,0.678 -0.96,2.756 -1.388,3.733c-0.01,0.023 -0.112,0.256 -0.086,0.306c0.143,0.277 0.312,-0.1 0.324,-0.126c0.681,-1.521 1.922,-3.458 2.781,-5.041c0.04,-0.073 0.058,-0.059 0.526,-0.894c0.086,-0.154 0.716,-1.28 1.116,-1.902c0.308,-0.479 -0.121,-0.48 -0.267,-1.281c-0.166,-0.91 0.478,-1.523 0.631,-1.705l0.077,-0.047c0.447,-0.174 0.439,-0.194 0.89,-0.318c0.289,0.016 0.286,0.015 0.572,0.066c0.66,0.295 0.632,0.343 0.729,0.409c0.024,0.016 0.056,0.019 0.08,0.035c0.748,0.956 0.461,1.569 0.283,2.1c-0.024,0.032 -0.035,0.015 -0.06,0.048c-0.037,0.05 -0.02,0.057 -0.056,0.108l-0.129,0.151c-1.139,1.053 -1.574,0.285 -1.933,0.791c-0.002,0.003 -0.288,0.516 -0.383,0.655c-0.152,0.224 -1.127,1.953 -1.167,2.015c-0.157,0.244 -1.178,2.108 -1.998,3.337c-0.015,0.023 -0.527,0.757 -0.516,0.869c0.001,0.01 0.16,0.043 0.244,0.012c0.042,-0.015 0.035,-0.026 0.68,-0.906c0.226,-0.309 0.204,-0.324 0.845,-1.173c0.174,-0.23 1.259,-1.668 2.203,-2.858l0.104,0.163c0.032,0.026 0.03,0.081 0.063,0.107c0.037,0.03 0.096,0.022 0.135,0.051c0.013,0.01 -0.007,0.027 0.134,0.151c0.094,0.083 0.068,0.105 0.164,0.187c0.061,0.052 0.07,0.032 0.133,0.081c0.049,0.038 0.035,0.049 0.085,0.088c-0.51,0.648 -0.516,0.641 -0.999,1.31c-0.057,0.079 -0.073,0.065 -0.755,0.95c-0.63,0.818 -0.61,0.832 -1.429,1.743c-0.294,0.327 -0.628,0.69 -0.584,0.795c0.102,0.245 0.157,-0.056 2.561,-2.115c0.928,-0.795 2.092,-1.768 2.275,-1.921l0.114,0.16c0.024,0.036 0.019,0.086 0.043,0.123c0.01,0.015 0.021,0.001 0.163,0.149c0.101,0.105 0.111,0.16 0.12,0.168c0.024,0.021 0.026,0.015 0.347,0.199c-0.558,0.496 -3.074,2.629 -3.34,2.864c-0.205,0.182 -5.315,4.518 -5.777,4.91c-0.784,0.665 -1.168,1.032 -1.713,1.468c-0.123,0.098 -0.422,0.391 -0.458,0.426c-0.365,0.357 -0.325,-0.029 -0.319,-0.054c0.018,-0.086 0.104,-0.05 0.409,-1.02c0.125,-0.397 0.167,-0.382 1.74,-4.908c0.3,-0.863 0.324,-0.853 0.6,-1.724c0.055,-0.174 0.076,-0.166 0.748,-2.157c0.111,-0.329 0.856,-2.347 1.112,-3.19c0.105,-0.346 0.976,-2.774 1.063,-3.014c0.399,-1.112 0.871,-2.545 0.944,-2.767c0.14,-0.425 0.084,-0.449 -0.175,-0.814c-0.019,-0.026 -0.228,-0.322 -0.234,-0.326c-0.173,-0.149 -0.202,-0.114 -2.594,-0.12c-0.076,-0 -6.148,-0.006 -6.35,0.006c-0.413,0.026 -0.397,0.627 -1.149,0.994c-1.287,0.627 -2.646,-0.52 -2.516,-1.757c0.055,-0.526 0.477,-1.408 1.497,-1.572c0.471,-0.076 0.457,-0.162 0.682,-0.746c0.089,-0.232 0.108,-0.224 1.187,-2.876c0.173,-0.425 0.395,-0.932 0.43,-1.012c0.267,-0.609 0.73,-1.8 1.275,-3.043c0.255,-0.581 0.107,-0.605 -0.081,-0.872c-0.442,-0.63 -0.475,-2.335 1.133,-2.683c0.409,-0.089 0.476,-0.058 0.628,-0.449c0.014,-0.036 1.467,-3.584 1.595,-3.896c0.298,-0.727 0.333,-0.71 0.725,-1.733c0.127,-0.331 0.458,-1.091 0.499,-1.185c0.233,-0.534 0.743,-1.768 0.749,-1.872c0.021,-0.363 -0.665,-0.558 -0.559,-1.73c0.137,-1.513 2.117,-2.048 3.079,-0.958c0.268,0.303 0.19,0.622 0.784,0.618c1.446,-0.008 1.443,0.023 2.887,-0.005c0.589,-0.011 0.487,-0.474 1.061,-0.893c0.814,-0.594 2.263,-0.297 2.66,0.816c0.015,0.042 0.016,0.088 0.031,0.13c0.082,0.502 0.104,0.572 -0.025,1.141c-0.206,0.443 -0.418,0.802 -1.113,1.062c-0.435,0.163 -0.744,-0.042 -0.971,0.422c-0.331,0.681 -0.289,0.698 -0.892,2.008c-0.136,0.295 -0.117,0.301 -0.26,0.592c-0.257,0.525 -0.551,1.184 -0.598,1.287c-0.108,0.242 -0.069,0.408 -0.07,0.421c0.012,0.023 -0.014,0.066 0.23,0.389c0.194,0.258 0.168,0.273 0.203,0.34c0.333,1.075 0.025,1.661 -0.74,2.247c-0.397,0.145 -0.395,0.153 -0.817,0.196c-0.329,0.055 -0.349,0.016 -0.456,0.123c-0.17,0.171 -0.528,1.074 -1.205,2.369c-0.19,0.362 -1.084,2.247 -1.635,3.298c-0.029,0.055 -0.019,0.059 -0.342,0.694c-0.105,0.207 -0.163,0.212 -0.076,0.427c0.013,0.032 0.106,0.265 0.395,0.172c0.215,-0.069 0.663,-0.27 0.72,-0.295c1.628,-0.729 2.517,-0.923 2.62,-1.143c0.067,-0.144 0.024,-0.93 0.749,-1.544c0.17,-0.144 0.172,-0.141 0.378,-0.223Zm-2.737,-12.89c-0.27,0.018 -0.353,-0.074 -0.655,0.392c-0.226,0.35 -0.231,0.347 -0.24,0.382c-0.058,0.223 0.023,0.222 1.421,3.21c0.618,1.321 0.607,1.43 0.911,1.483c0.424,0.074 0.45,-0.27 0.708,-0.796c0.271,-0.552 0.246,-0.562 0.512,-1.118c0.062,-0.13 0.039,-0.14 0.746,-1.645c0.404,-0.861 0.403,-0.896 0.399,-0.981c-0.007,-0.182 -0.223,-0.341 -0.349,-0.568c-0.244,-0.44 -0.344,-0.359 -1.142,-0.359c-1.66,0.001 -1.751,-0.014 -2.311,-0Zm-5.402,12.177c-0.263,0.718 -0.418,0.756 -0.164,1.122c0.355,0.511 0.369,0.497 0.716,1.015c0.045,0.067 0.385,0.541 0.418,0.588c0.365,0.51 0.381,0.518 0.43,0.544c0.127,0.066 0.426,0.011 0.534,0.008c0.233,-0.007 0.244,0.041 0.445,-0.075c0.134,-0.077 0.47,-0.888 0.612,-1.144c0.042,-0.076 0.912,-1.87 0.991,-2.032c0.128,-0.265 1.728,-3.462 1.729,-3.478c0.014,-0.32 -0.405,-0.119 -0.437,-0.103c-0.363,0.174 -0.353,0.193 -4.463,2.328c-0.66,0.343 -0.67,0.356 -0.71,0.407c-0.13,0.169 -0.033,0.198 -0.104,0.82Zm-4.748,8.223c-0.243,0.566 -0.225,0.574 -0.405,0.882c-0.013,0.022 -0.179,0.306 0.007,0.317c0.166,0.01 0.216,-0.141 0.885,-0.585c0.53,-0.351 1.107,-0.786 1.285,-0.889c0.083,-0.048 1.894,-1.294 2.323,-1.569c0.188,-0.12 0.175,-0.134 0.328,-0.235c0.148,-0.097 0.659,-0.348 0.647,-0.643c-0.005,-0.135 -0.166,-0.669 0.17,-1.302c0.042,-0.078 0.202,-0.254 0.128,-0.424c-0.024,-0.055 -0.634,-0.908 -1.125,-1.605c-0.516,-0.733 -0.522,-0.845 -1.015,-0.789c-0.497,0.057 -0.473,0.161 -0.649,0.629c-0.06,0.158 -2.507,6.062 -2.578,6.212Zm0.105,1.929c0.068,0.125 0.046,0.206 0.234,0.189c0.526,-0.05 0.525,-0.04 3.748,-0.04c4.389,-0.001 4.389,0.039 4.768,-0.008c0.446,-0.055 0.535,-0.583 0.534,-0.603c-0.001,-0.05 -0.003,-0.12 -0.3,-0.544c-1.142,-1.631 -1.124,-1.643 -1.224,-1.783c-0.389,-0.544 -0.408,-0.6 -0.745,-0.562c-0.859,0.098 -1.021,-0.171 -1.303,-0.281c-0.378,-0.147 -0.367,0.045 -1.859,1.024c-0.466,0.305 -0.45,0.323 -0.49,0.349c-0.405,0.26 -0.406,0.254 -0.803,0.527c-0.972,0.669 -1.523,1.026 -1.788,1.221c-0.428,0.314 -0.527,0.294 -0.771,0.512Zm4.531,-13.039c-0.193,0.456 -0.415,1.017 -0.416,1.023c-0.025,0.432 0.567,0.062 0.609,0.036c0.015,-0.009 3.303,-1.746 3.31,-1.749c0.071,-0.032 0.061,-0.049 0.868,-0.43c0.844,-0.399 0.872,-0.508 0.892,-0.591c0.093,-0.374 -0.222,-0.692 0.488,-1.501c0.277,-0.315 0.024,-0.546 -0.098,-0.816c-0.104,-0.231 -0.115,-0.225 -1.349,-2.864c-0.054,-0.116 -0.079,-0.101 -0.361,-0.757c-0.049,-0.114 -0.186,-0.437 -0.446,-0.402c-0.17,0.023 -0.242,0.16 -0.502,0.817c-0.101,0.255 -0.119,0.302 -1.299,3.176c-0.061,0.149 -0.153,0.299 -0.33,0.762c-0.188,0.491 -0.207,0.482 -0.391,0.973c-0.011,0.029 -0.841,2.019 -0.975,2.32Z" style="fill:#0c6dc4;"/><path d="M26.833,49.972c0.519,0.014 0.632,0.009 0.715,-0.073c0.156,-0.156 -0.027,-1.522 0.147,-1.729c0.123,-0.147 0.352,-0.156 1.16,-0.143c0.544,0.009 0.521,0.181 0.523,0.724c0.002,0.834 -0.049,1.147 0.178,1.212c0.283,0.081 1.796,-0.105 1.986,0.136c0.123,0.156 0.115,1.074 0.015,1.221c-0.112,0.164 -0.33,0.13 -1.546,0.131c-0.035,0 -0.394,0 -0.442,0.013c-0.18,0.049 -0.19,0.285 -0.192,0.314c-0.001,0.013 -0.001,2.119 0.003,2.317c0.026,1.493 1.268,0.988 1.926,1.081c0.395,0.056 0.342,0.339 0.333,0.94c-0.009,0.624 -0.252,0.563 -1.05,0.574c-1.458,0.021 -2.883,-0.021 -2.972,-2.165c-0.009,-0.219 0.004,-2.55 0.006,-2.597c0.019,-0.642 -0.291,-0.442 -0.93,-0.473c-0.409,-0.02 -0.415,-0.218 -0.417,-0.538c-0.003,-0.679 -0.05,-0.895 0.412,-0.933c0.049,-0.004 0.098,-0.007 0.147,-0.011Z" style="fill:#0761c2;"/><path d="M24.524,56.674c-0.534,0.01 -0.918,0.093 -0.936,-0.412c-0.009,-0.255 -0.01,-8.312 -0.006,-8.375c0.033,-0.512 0.487,-0.411 1.086,-0.412c0.068,-0 0.466,-0.038 0.602,0.095c0.155,0.151 0.089,0.191 0.106,4.069c0.002,0.37 0.019,4.382 0.002,4.62c-0.036,0.498 -0.377,0.415 -0.855,0.416Z" style="fill:#0557bb;"/><path d="M50.372,49.965c0.15,-0.001 1.319,-0.009 1.875,-0.004c0.254,0.002 0.525,0.027 0.513,0.523c-0.014,0.588 0.077,0.816 -0.512,0.819c-2,0.008 -2.504,-0.105 -2.861,0.354c-0.256,0.328 -0.212,0.575 -0.211,4.458c0,0.474 -0.065,0.556 -0.537,0.56c-0.613,0.005 -0.882,0.045 -0.907,-0.413c-0.002,-0.038 0.001,-3.966 0.008,-4.19c0.061,-1.928 1.411,-2.039 2.633,-2.106Z" style="fill:#0f91d8;"/><path d="M44.451,49.966c0.161,-0.001 1.913,-0.012 2.017,-0.001c0.429,0.046 0.434,0.288 0.41,0.95c-0.015,0.401 -0.233,0.387 -0.551,0.387c-0.722,0 -0.721,-0.005 -1.444,-0.004c-1.313,0.001 -1.575,0.159 -1.582,1.496c-0.017,3.191 0.012,3.189 0.007,3.466c-0.009,0.455 -0.284,0.436 -1.023,0.418c-0.486,-0.011 -0.41,-0.269 -0.412,-1.141c-0.011,-3.956 -0.052,-4.289 0.46,-4.866c0.629,-0.708 1.807,-0.688 2.118,-0.705Z" style="fill:#0d85d1;"/><path d="M32.757,20.504c0.434,-0.046 1.088,-0.197 1.811,0.556c0.204,0.329 0.208,0.325 0.336,0.692c0.01,0.046 0.027,0.091 0.037,0.137c0.24,1.067 -0.719,2.06 -1.613,2.1c-0.358,0.016 -0.357,-0.003 -0.697,-0.113c-0.236,-0.115 -0.236,-0.108 -0.454,-0.251c-0.159,-0.132 -0.157,-0.131 -0.296,-0.281c-0.205,-0.294 -0.217,-0.288 -0.375,-0.73c-0.01,-0.144 -0.021,-0.288 -0.031,-0.432c0.002,-0.023 -0.024,-0.255 0.171,-0.822c0.184,-0.246 0.175,-0.253 0.399,-0.462c0.314,-0.266 0.324,-0.254 0.713,-0.394Z" style="fill:#0783d2;"/><path d="M36.962,1.249c0.152,-0.446 0.149,-0.478 0.493,-0.796c0.786,-0.725 1.792,-0.424 2.179,-0.149c1.127,0.8 0.869,2.436 -0.097,2.957c-0.595,0.321 -0.849,0.264 -1.148,0.253c-0.037,-0.012 -0.969,-0.17 -1.322,-0.958c-0.315,-0.704 -0.131,-1.186 -0.105,-1.308Z" style="fill:#08b0ee;"/><path d="M40.374,16.401c0.004,-0.01 0.079,-0.355 0.284,-0.602c0.063,-0.076 0.464,-0.559 1.056,-0.645c0.147,-0.021 1.131,-0.164 1.735,0.667c0.667,0.917 0.225,1.722 0.148,1.893c-0.077,0.169 -0.46,0.68 -1.027,0.852c-0.654,0.198 -1.125,-0.035 -1.129,-0.036c-0.053,-0.022 -0.434,-0.183 -0.605,-0.387c-0.283,-0.336 -0.296,-0.397 -0.309,-0.424c-0.316,-0.64 -0.207,-1.018 -0.153,-1.318Z" style="fill:#08a4e8;"/><path d="M24.974,19.585c0.021,0.002 0.035,0.024 0.056,0.026c0.105,0.012 0.104,-0.013 0.207,0.004c0.01,0.002 0.088,0.036 0.303,0.095c0.138,0.037 1.672,0.452 1.725,0.464c0.359,0.079 0.352,0.096 0.71,0.187c0.811,0.206 3.644,0.991 3.671,0.998c-0.195,0.567 -0.169,0.799 -0.171,0.822c-0.055,-0.009 -0.113,0.015 -0.168,0.006c-0.036,-0.006 -0.027,-0.034 -0.434,-0.132c-0.128,-0.031 -0.126,-0.034 -1.592,-0.422c-0.103,-0.027 -0.099,-0.04 -1.282,-0.354c-1.008,-0.267 -2.495,-0.675 -3.226,-0.868c0.258,-0.78 0.198,-0.793 0.201,-0.825Z" style="fill:#f8a517;"/><path d="M31.729,32.969l0.079,0.187c0.041,0.083 0.081,0.167 0.122,0.25l0.019,0.183c0.019,0.033 0.197,0.334 0.271,0.392c0.029,0.022 0.073,0.018 0.1,0.042c0.072,0.062 0.043,0.086 0.117,0.144c0.095,0.076 0.115,0.04 0.209,0.115c0.032,0.008 0.054,0.04 0.086,0.048c0.097,0.024 0.106,-0.008 0.226,0.067c0.021,0.013 0.016,0.014 0.244,0.189c0.147,0.113 0.119,0.312 0.121,0.314c0.035,0.041 0.101,0.038 0.154,0.051c0.047,0.011 0.098,0.006 0.144,0.021c0.067,0.021 0.127,0.065 0.194,0.086c-0.2,0.41 -0.664,1.509 -0.67,1.512c-0.027,0.014 -0.061,-0.012 -0.092,-0.013c-0.031,-0.001 -0.066,0.024 -0.092,0.007c-0.024,-0.016 -0.171,-0.483 -0.184,-0.526c-0.118,-0.375 -0.13,-0.368 -0.31,-0.716c-0.051,0.002 -0.097,-0.046 -0.148,-0.044c-0.064,0.002 -0.149,0.05 -1.061,0.852c-0.027,0.024 -0.058,0.044 -0.085,0.068c-0.103,-0.079 -0.048,-0.123 -0.151,-0.202c-0.22,-0.169 -0.251,-0.1 -0.266,-0.117c-0.104,-0.114 0.11,-0.176 -0.01,-0.274c-0.041,-0.034 -0.11,-0.007 -0.157,-0.033c-0.076,-0.043 -0.125,-0.125 -0.201,-0.167c0.048,-0.044 0.593,-0.537 0.604,-0.547c0.024,-0.021 0.266,-0.233 0.305,-0.268c0.133,-0.12 0.161,-0.101 0.215,-0.273c0.045,-0.143 -0.021,-0.129 -0.143,-0.212c-0.062,-0.042 -0.548,-0.374 -0.8,-0.493c-0.342,-0.162 0.133,-0.307 0.16,-0.316c0.504,-0.154 0.501,-0.158 0.999,-0.323Z" style="fill:#d09a3d;"/><path d="M31.729,32.969c2.663,-0.791 2.815,-0.848 3.054,-0.938c0.599,-0.226 0.257,0.352 0.238,0.383c-0.032,0.054 -0.053,0.042 -1.207,2.643c-0.067,-0.021 -0.127,-0.065 -0.194,-0.086c-0.046,-0.015 -0.097,-0.009 -0.144,-0.021c-0.052,-0.013 -0.119,-0.01 -0.154,-0.051c-0.001,-0.002 0.027,-0.201 -0.121,-0.314c-0.228,-0.174 -0.223,-0.175 -0.244,-0.189c-0.119,-0.075 -0.129,-0.043 -0.226,-0.067c-0.032,-0.008 -0.054,-0.04 -0.086,-0.048c0.013,-0.061 0.031,-0.053 0.045,-0.115c0.01,-0.048 -0.012,-0.048 0,-0.095c0.018,-0.067 0.074,-0.125 0.077,-0.194c0.002,-0.041 -0.044,-0.069 -0.064,-0.104c-0.018,-0.033 -0.034,-0.133 -0.21,-0.215c-0.18,-0.084 -0.174,-0.09 -0.191,-0.094c-0.029,-0.007 -0.028,-0.004 -0.373,-0.058c-0.041,-0.083 -0.081,-0.167 -0.122,-0.25l-0.079,-0.187Z" style="fill:#f9a911;"/><path d="M32.177,23.625c0.218,0.144 0.218,0.137 0.454,0.251c0.061,0.276 0.069,0.274 0.066,0.298c-0.005,0.041 -0.044,0.021 -0.259,0.45c-0.972,1.941 -1.894,3.529 -2.197,4.229c-0.024,-0.016 -0.056,-0.019 -0.08,-0.035c-0.098,-0.066 -0.069,-0.115 -0.729,-0.409c0.043,-0.068 0.069,-0.049 0.185,-0.29c0.065,-0.135 2.175,-4.204 2.31,-4.324c0.041,-0.037 0.051,-0.011 0.096,-0.042c0.084,-0.057 0.069,-0.071 0.155,-0.129Z" style="fill:#f8a414;"/><path d="M28.95,11.155c0.005,0.07 -0.006,0.14 -0.001,0.21c0.004,0.051 0.869,3.019 0.956,3.448c0.01,0.049 0.004,0.102 0.022,0.149c0.018,0.047 0.066,0.077 0.085,0.124c-0.537,0.049 -0.53,0.079 -0.73,0.142c-0.054,-0.061 -0.092,-0.026 -0.204,-0.229c-0.085,-0.154 -0.278,-0.99 -0.346,-1.199c-0.049,-0.149 -0.194,-0.595 -0.542,-1.885c-0.075,-0.278 -0.063,-0.279 -0.055,-0.566c0.422,-0.043 0.42,-0.051 0.817,-0.196Z" style="fill:#f7ab1f;"/><path d="M31.506,22.613c0.158,0.442 0.17,0.436 0.375,0.73c-0.036,0.02 -0.82,0.475 -0.891,0.517c-0.221,0.128 -1.576,0.825 -1.714,0.896c-0.04,0.02 -0.084,0.032 -0.122,0.054c-0.021,0.012 -0.032,0.038 -0.053,0.049c-0.051,0.026 -0.127,0.014 -0.16,0.061c-0.029,0.041 0.038,0.11 0.008,0.152c-0.18,-0.545 -0.189,-0.546 -0.485,-0.916c0.661,-0.243 0.655,-0.327 1.848,-0.937c0.196,-0.1 0.683,-0.371 0.856,-0.453c0.042,-0.02 0.087,-0.033 0.126,-0.057c0.019,-0.012 0.026,-0.041 0.047,-0.05c0.079,-0.036 0.084,-0.009 0.165,-0.045Z" style="fill:#f7a816;"/><path d="M29.585,32.295c0.027,0.026 0.158,0.046 0.29,0.278c0.019,0.033 0.028,0.073 0.054,0.1c0.009,0.009 0.086,0.019 0.143,0.135c0.031,0.064 0.044,0.138 0.084,0.196c0.043,0.063 0.117,0.099 0.16,0.162c-0.219,0.29 -0.188,0.31 -0.421,0.589c-0.151,0.181 -0.145,0.184 -0.821,1.076c-0.05,-0.039 -0.036,-0.05 -0.085,-0.088c-0.063,-0.048 -0.072,-0.029 -0.133,-0.081c-0.096,-0.082 -0.07,-0.104 -0.164,-0.187c-0.141,-0.124 -0.122,-0.141 -0.134,-0.151c-0.038,-0.029 -0.097,-0.021 -0.135,-0.051c-0.032,-0.026 -0.03,-0.081 -0.063,-0.107l-0.104,-0.163c0.299,-0.36 1.072,-1.39 1.329,-1.708Z" style="fill:#95835f;"/><path d="M31.163,18.136c0.063,0.051 0.128,0.015 0.401,0.458c0.079,0.128 0.878,1.424 0.978,1.6c0.094,0.166 0.107,0.154 0.216,0.31c-0.389,0.139 -0.398,0.127 -0.713,0.394c-0.263,-0.292 -0.279,-0.28 -1.119,-1.633c-0.044,-0.071 -0.1,-0.214 -0.271,-0.441c-0.102,-0.135 -0.106,-0.128 -0.212,-0.257c0.266,-0.103 0.36,-0.111 0.72,-0.431Z" style="fill:#f6b61b;"/><path d="M28.447,8.85c0.213,0.155 0.25,0.124 0.368,0.357c0.517,1.018 -1.042,1.804 -1.522,0.693c-0.255,-0.589 0.388,-1.373 1.103,-1.083c0.019,0.008 0.032,0.026 0.051,0.033Z" style="fill:#31ebf9;"/><path d="M27.264,24.548c0.057,0.016 0.084,-0.016 0.294,0.085c0.463,0.224 0.813,1.045 0.023,1.502c-0.733,0.425 -1.715,-0.653 -0.912,-1.376c0.274,-0.246 0.527,-0.203 0.594,-0.212Z" style="fill:#2debf9;"/><path d="M22.781,18.845c0.285,-0.103 0.284,-0.158 0.581,-0.097c0.024,0.005 0.14,0.029 0.284,0.129c0.489,0.343 0.368,0.947 0.264,1.119c-0.473,0.78 -1.7,0.324 -1.55,-0.558c0.07,-0.41 0.406,-0.582 0.421,-0.594Z" style="fill:#11ccfa;"/><path d="M39.121,1.083c0.194,0.195 0.228,0.18 0.296,0.446c0.257,1.004 -1.104,1.454 -1.554,0.557c-0.203,-0.404 0.068,-1.222 0.813,-1.167c0.22,0.016 0.209,0.053 0.445,0.164Z" style="fill:#42e9fa;"/><path d="M19.871,13.425c0.222,0.236 0.283,0.205 0.352,0.521c0.136,0.62 -0.498,1.218 -1.199,0.898c-0.722,-0.329 -0.508,-1.606 0.443,-1.557c0.219,0.011 0.207,0.049 0.404,0.138Z" style="fill:#0dccf9;"/><path d="M23.934,1.087c0.031,-0.019 0.029,-0.052 0.169,-0.104c0.56,-0.209 0.87,0.151 0.919,0.208c0.481,0.559 0.103,1.158 -0.228,1.309c-0.676,0.308 -1.342,-0.316 -1.162,-0.972c0.073,-0.264 0.112,-0.243 0.301,-0.441Z" style="fill:#22eefc;"/><path d="M41.989,16.05c0.167,0.021 0.238,-0.047 0.59,0.204c0.034,0.024 0.208,0.149 0.267,0.444c0.137,0.688 -0.468,1.123 -0.987,0.986c-0.641,-0.169 -0.825,-0.967 -0.404,-1.386c0.215,-0.214 0.241,-0.175 0.534,-0.248Z" style="fill:#4feef7;"/><path d="M32.33,1.678c-0.03,0.304 0.021,0.327 -0.165,0.569c-0.435,0.564 -1.396,0.354 -1.468,-0.421c-0.052,-0.557 0.584,-1.241 1.33,-0.719c0.086,0.06 0.083,0.061 0.14,0.146c0.157,0.231 0.122,0.245 0.163,0.425Z" style="fill:#add7b0;"/><path d="M14.841,24.55c0.101,0.042 0.282,0.051 0.502,0.332c0.36,0.459 0.087,1.396 -0.775,1.3c-0.761,-0.085 -0.848,-1.084 -0.441,-1.401c0.308,-0.24 0.323,-0.237 0.714,-0.231Z" style="fill:#0cb3fa;"/><path d="M29.001,29.317c0.314,0.063 0.346,0.009 0.569,0.236c0.169,0.172 0.202,0.38 0.208,0.417c0.14,0.869 -0.818,1.205 -1.289,0.804c-0.449,-0.383 -0.408,-1.14 0.085,-1.358c0.189,-0.084 0.194,-0.06 0.427,-0.099Z" style="fill:#08b8fa;"/><path d="M33.024,21.391c0.048,0.093 0.181,0.121 0.229,0.214c0.022,0.042 -0.078,0.094 -0.05,0.132c0.029,0.04 0.098,-0.001 0.147,0.002c0.042,0.002 0.112,-0.029 0.126,0.01c0.019,0.051 -0.083,0.062 0.062,0.683c0.006,0.025 0.029,0.045 0.028,0.071c-0.001,0.028 -0.04,0.049 -0.033,0.076c0.007,0.027 0.015,0.021 0.203,0.284c-0.264,0.116 -0.257,0.158 -0.546,0.15c-0.464,-0.013 -0.882,-0.364 -0.78,-0.979c0.009,-0.052 0.057,-0.346 0.361,-0.547c0.018,-0.012 0.019,-0.007 0.252,-0.094Z" style="fill:#18dafa;"/><path d="M28.275,26.8c0.006,0.047 -0.033,0.093 -0.027,0.14c0.006,0.05 0.043,0.091 0.063,0.137c0.179,0.423 0.151,0.43 0.321,0.857c0.103,0.257 0.085,0.264 0.098,0.284c0.032,0.051 0.098,0.074 0.13,0.125c-0.452,0.125 -0.443,0.144 -0.89,0.318c-0.042,-0.09 -0.085,-0.18 -0.127,-0.269c-0.029,-0.079 -0.026,-0.079 -0.356,-0.991c-0.006,-0.017 -0.024,-0.028 -0.028,-0.045c-0.017,-0.062 0.007,-0.141 -0.035,-0.19c-0.029,-0.033 -0.104,0.03 -0.133,-0.003c0.153,-0.035 0.493,-0.079 0.985,-0.363Z" style="fill:#cb943f;"/><path d="M29.292,16.408c0.175,-0.208 0.154,-0.243 0.411,-0.334c0.722,-0.256 1.519,0.521 0.892,1.349c-0.098,0.129 -0.118,0.103 -0.274,0.193c-0.005,-0.173 -0.018,-0.17 -0.011,-0.343c0.001,-0.013 0.007,-0.157 0.004,-0.159c-0.041,-0.036 -0.108,0.02 -0.162,0.019c-0.043,-0 -0.085,-0.018 -0.128,-0.022c-0.046,-0.004 -0.096,0.016 -0.138,-0.002c-0.018,-0.007 -0.11,-0.137 -0.112,-0.156c-0.003,-0.05 0.025,-0.098 0.02,-0.148c-0.004,-0.039 -0.026,-0.075 -0.046,-0.11c-0.03,-0.051 -0.073,-0.093 -0.103,-0.144l-0.212,0.071c-0.047,-0.071 -0.094,-0.143 -0.142,-0.214Z" style="fill:#21dafb;"/><path d="M29.292,16.408c0.047,0.071 0.094,0.143 0.142,0.214l0.212,-0.071c0.03,0.051 0.073,0.093 0.103,0.144c0.02,0.034 0.042,0.07 0.046,0.11c0.005,0.049 -0.024,0.098 -0.02,0.148c0.001,0.02 0.094,0.149 0.112,0.156c0.043,0.018 0.092,-0.002 0.138,0.002c0.043,0.004 0.085,0.022 0.128,0.022c0.054,0 0.121,-0.056 0.162,-0.019c0.003,0.002 -0.004,0.147 -0.004,0.159c-0.008,0.173 0.005,0.17 0.011,0.343c-0.092,0.02 -0.331,0.165 -0.75,-0.042c-0.25,-0.124 -0.333,-0.379 -0.347,-0.421c-0.145,-0.445 0.038,-0.664 0.068,-0.745Z" style="fill:#12cffd;"/><path d="M33.024,21.391c0.021,-0.001 0.426,-0.116 0.753,0.2c0.411,0.397 0.202,1.001 0.092,1.137c-0.04,0.049 -0.093,0.085 -0.133,0.133c-0.189,-0.263 -0.196,-0.256 -0.203,-0.284c-0.007,-0.027 0.032,-0.048 0.033,-0.076c0.001,-0.025 -0.022,-0.046 -0.028,-0.071c-0.146,-0.621 -0.043,-0.631 -0.062,-0.683c-0.015,-0.04 -0.084,-0.009 -0.126,-0.01c-0.049,-0.002 -0.118,0.038 -0.147,-0.002c-0.028,-0.038 0.071,-0.09 0.05,-0.132c-0.048,-0.093 -0.181,-0.121 -0.229,-0.214Z" style="fill:#3ce8fa;"/><path d="M30.388,35.402c0.076,0.043 0.125,0.125 0.201,0.167c0.047,0.026 0.115,-0.001 0.157,0.033c0.12,0.098 -0.094,0.16 0.01,0.274c0.016,0.017 0.046,-0.051 0.266,0.117c0.103,0.079 0.048,0.123 0.151,0.202c-0.081,0.066 -0.162,0.132 -0.243,0.198c-0.321,-0.184 -0.323,-0.178 -0.347,-0.199c-0.009,-0.008 -0.019,-0.063 -0.12,-0.168c-0.142,-0.147 -0.154,-0.134 -0.163,-0.149c-0.024,-0.036 -0.019,-0.086 -0.043,-0.123l-0.114,-0.16c0.082,-0.064 0.164,-0.129 0.245,-0.193Z" style="fill:#a18a5e;"/><path d="M31.93,33.406c0.346,0.054 0.344,0.051 0.373,0.058c0.017,0.004 0.011,0.01 0.191,0.094c0.176,0.083 0.192,0.182 0.21,0.215c0.019,0.036 0.065,0.064 0.064,0.104c-0.003,0.07 -0.059,0.127 -0.077,0.194c-0.013,0.047 0.01,0.047 -0,0.095c-0.013,0.063 -0.032,0.054 -0.045,0.115c-0.094,-0.075 -0.114,-0.039 -0.209,-0.115c-0.073,-0.058 -0.045,-0.082 -0.117,-0.144c-0.027,-0.024 -0.072,-0.02 -0.1,-0.042c-0.074,-0.058 -0.252,-0.359 -0.271,-0.392l-0.019,-0.183Z" style="fill:#eba123;"/><path d="M27.842,28.392c0.042,0.09 0.085,0.18 0.127,0.269l-0.077,0.047c-0.017,-0.106 -0.033,-0.211 -0.05,-0.317Z" style="fill:#c8c7b8;"/><path d="M24.258,1.664c-0.021,-0.078 -0.147,-0.096 -0.167,-0.174c-0.01,-0.038 0.073,-0.041 0.112,-0.036c0.039,0.004 0.051,0.049 0.052,0.055c0.021,0.078 -0.017,0.078 0.003,0.155Z" style="fill:#1deffd;"/></g></svg>